<?xml version="1.0" encoding="utf-8"?>
<!-- Generator: Adobe Illustrator 19.1.0, SVG Export Plug-In . SVG Version: 6.00 Build 0)  -->
<svg version="1.1" id="Layer_1" xmlns="http://www.w3.org/2000/svg" xmlns:xlink="http://www.w3.org/1999/xlink" x="0px" y="0px"
	 viewBox="0 100 1000 800" style="enable-background:new 0 100 1000 800;" xml:space="preserve">
<style type="text/css">
	.st0{fill:none;}
	.st1{fill:#562894;}
	.st2{opacity:0.5;fill:#562894;enable-background:new    ;}
</style>
<path class="st0" d="M351.5,412.3c-2.4-0.7-4.8-0.7-6.9-0.2l-28.2,26.8c1.6,7.6,4.1,14.8,5.4,15.6c1,0.1,4.6-2,6.7-3.3
	c4.4-2.6,8.3-4.9,11.2-3.6c3,1.2,3.6,5.2,4.3,9.9c0.4,2.8,1.2,7.6,2.6,8.2c2.4,1,10.1-2.9,14.7-6.1c0,0,0.1,0,0.1-0.1l-2.4-40.8
	C357.9,415.9,355.2,413.4,351.5,412.3z"/>
<polygon class="st0" points="483.4,554.6 479,543.2 460,527 448.8,538.8 465.7,554.6 "/>
<polygon class="st0" points="467.9,518.5 470.3,520.8 469,517.4 "/>
<path class="st0" d="M559.7,441c1.2-2.8,4.6-4.1,7.5-2.8L674.7,486l0.1-0.3c0-0.1,0.1-0.2,0.1-0.3c0.3-0.6,0-1.4-0.6-1.6L556,431.2
	c-0.3-0.1-0.6-0.1-1,0c-0.3,0.1-0.6,0.4-0.7,0.7l-16,35.9c0.1,0.7-0.1,1.4-0.5,1.9c-0.1,0.1-0.3,0.2-0.4,0.3l-22.1,49.8
	c0,0.1-0.1,0.3-0.2,0.4l-13,29.2l8.9-8.4L559.7,441z"/>
<path class="st0" d="M643,528c-0.9-0.4-2,0-2.4,0.9l-10.7,24l37.1-14.3L643,528z"/>
<path class="st0" d="M598.2,483.8c-0.7,0.3-1.4,0.6-2.2,0.8l-9.5,2.9l13.3,14.1l3.8-9.1c0.5-1.5,0.6-2.6,0.5-3.5l-2.7,2.6l-5.2-5.5
	l2.3-2.2C598.3,483.8,598.2,483.8,598.2,483.8z"/>
<path class="st0" d="M561.2,495.2c-0.7,0.2-1.4,0.4-2.2,0.7l29.9,31.7c0.3-0.8,0.6-1.5,0.8-2.1l8.1-19.4L581.7,489L561.2,495.2z"/>
<path class="st0" d="M363.9,418.5c-0.1,0-0.2,0-0.3,0l0.3,5.9l0,0c1.8-0.5,14.8-0.7,20.3-0.8l0,0l0,0H401c6.7,0,12.9,2.7,17.3,7.1
	l-2.1-5.5c-0.2-0.6-0.2-1.2,0-1.7s0.7-1,1.2-1.2l1.6-0.6c-5.9-3.2-13.9-4.7-20.4-4.7h-25.3C370.2,417.1,367,417.5,363.9,418.5z"/>
<path class="st0" d="M428,423.1c5,6.7,6.8,23.2,7.3,39.1l1.6,4.1l8.9-9.5l-13.6-35.4L428,423.1z"/>
<path class="st0" d="M386.5,465v5.2h34.8v-21.7c0-11.2-9.1-20.3-20.3-20.3h-14.5v9.5c1.7,0.6,2.9,2.2,2.9,4.1V461
	C389.4,462.8,388.2,464.4,386.5,465z"/>
<path class="st0" d="M438.7,471l2.6,6.9l1.8-0.7l3.7-3.9c0.8-0.9,2.2-0.9,3.1-0.1l3,2.7l-5.5-14.2L438.7,471z"/>
<path class="st0" d="M335.1,545.2l17.9-22.4c2.1-2.7,5-4.3,7.8-4.6c2-0.2,3.8,0.5,5.2,1.7l11.9,9.3l53.1-56.6c0-3.3-0.1-6.5-0.1-9.5
	l-5-13v22.3c0,1.2-1,2.2-2.2,2.2h-39.3h-23.5C355.5,488.7,346.8,512.6,335.1,545.2z"/>
<path class="st0" d="M423.8,425.1c-0.1-0.1-0.2-0.2-0.3-0.2l-2.3,0.9l8.7,22.7C428.8,436.2,426.7,427.9,423.8,425.1z"/>
<path class="st0" d="M382.1,470.2v-6c-0.9-0.8-1.5-2-1.5-3.3v-19.2c0-1.3,0.6-2.5,1.5-3.3v-10.3c-7.9,0.1-15.9,0.4-17,0.6
	c-0.3,0.1-0.6,0-0.8,0l1.9,32c0,0.4,0,0.7-0.2,1c-0.8,1.8-1.9,4.6-3.4,8.4L382.1,470.2L382.1,470.2z"/>
<path class="st0" d="M730.2,521.1c-0.2-0.5-0.5-0.8-1-1s-0.9-0.2-1.4,0L675,540.4c-0.5,0.6-1.3,0.9-2.1,0.8l-35.1,13.5h105.3
	L730.2,521.1z"/>
<path class="st0" d="M262.3,538.1l-4.8,1.6c-1.5,0.5-2.2,2.1-1.7,3.6l1.6,4.8c0.2,0.7,0.8,1.3,1.4,1.6c0.7,0.3,1.4,0.4,2.1,0.1
	l4.8-1.6c0.7-0.2,1.3-0.7,1.6-1.4c0.3-0.7,0.4-1.4,0.1-2.1l-1.6-4.8C265.3,538.3,263.7,537.6,262.3,538.1z"/>
<rect x="577.4" y="601.7" transform="matrix(-0.9686 -0.2486 0.2486 -0.9686 1048.3867 1367.4213)" class="st0" width="66.3" height="31.6"/>
<path class="st0" d="M391.6,614.6l17.9,106.9l106.9-17.9l-17.9-106.9L391.6,614.6z M466.9,686c-0.3,0.5-0.9,0.8-1.4,0.9l-9.8,1.6
	c-1.2,0.2-2.4-0.6-2.6-1.8l-3.5-20.9l-9.8,1.6l3.5,20.9c0.1,0.6,0,1.2-0.4,1.7c-0.3,0.5-0.9,0.8-1.4,0.9l-9.8,1.6
	c-0.1,0-0.2,0-0.4,0c-1.1,0-2-0.8-2.2-1.9l-8.9-53.4c-0.2-1.2,0.6-2.4,1.8-2.6l9.8-1.6c0.6-0.1,1.2,0,1.7,0.4
	c0.5,0.3,0.8,0.9,0.9,1.4l3.1,18.3l9.8-1.6l-3.1-18.3c-0.2-1.2,0.6-2.4,1.8-2.6l9.8-1.6c0.6-0.1,1.2,0,1.7,0.4
	c0.5,0.3,0.8,0.9,0.9,1.4l8.9,53.4C467.4,685,467.3,685.5,466.9,686z M485.9,683.5l-9.8,1.6c-0.1,0-0.2,0-0.4,0
	c-0.5,0-0.9-0.1-1.3-0.4c-0.5-0.3-0.8-0.9-0.9-1.4l-8.9-53.4c-0.1-0.6,0-1.2,0.4-1.7c0.3-0.5,0.9-0.8,1.4-0.9l9.8-1.6
	c1.2-0.2,2.4,0.6,2.6,1.8l8.9,53.4C488,682.2,487.2,683.3,485.9,683.5z"/>
<path class="st0" d="M559.7,631.6l89.1,22.9l12.9-50.2l-89.1-22.9L559.7,631.6z M581.3,589.1l68.6,17.6c1.2,0.3,1.9,1.5,1.6,2.7
	l-9,34.9c-0.1,0.6-0.5,1.1-1,1.4c-0.3,0.2-0.7,0.3-1.1,0.3c-0.2,0-0.4,0-0.6-0.1l-68.6-17.6c-0.6-0.1-1.1-0.5-1.4-1
	c-0.3-0.5-0.4-1.1-0.2-1.7l9-34.9C578.9,589.5,580.1,588.8,581.3,589.1z"/>
<path class="st0" d="M756.8,556.9c0,1.2-1,2.2-2.2,2.2H246.4c-1.2,0-2.2-1-2.2-2.2v-52.1V504V280.4h-56.9v474.9h626.4V280.4h-56.9
	V556.9z M318.3,650.6c-1.3,1.7-1.9,3.9-1.6,6c0.1,0.9-0.3,1.8-1.1,2.2c-0.8,0.5-1.8,0.4-2.5-0.2c-2.6-2-6.1-2.3-8.9-0.7
	s-4.4,4.8-4,8c0.1,0.9-0.3,1.8-1.1,2.2c-0.8,0.5-1.8,0.4-2.5-0.2c-2.6-2-6.1-2.3-8.9-0.7s-4.4,4.8-4,8c0.1,0.9-0.3,1.8-1.1,2.2
	c-0.3,0.2-0.7,0.3-1.1,0.3c-0.5,0-1-0.2-1.4-0.5c-1.7-1.3-3.9-1.9-6-1.7c-0.9,0.1-1.8-0.3-2.2-1.1c-0.4-0.8-0.4-1.8,0.2-2.5
	c2-2.6,2.3-6.1,0.7-8.9c-1.6-2.8-4.8-4.4-8-4c-0.9,0.1-1.8-0.3-2.2-1.1c-0.4-0.8-0.4-1.8,0.2-2.5c2-2.6,2.3-6.1,0.7-8.9
	c-1.6-2.8-4.8-4.4-8-4c-0.9,0.1-1.8-0.3-2.2-1.1s-0.4-1.8,0.2-2.5c1.3-1.7,1.9-3.9,1.6-6c-0.1-0.9,0.3-1.8,1.1-2.2
	c0.8-0.5,1.8-0.4,2.5,0.2c2.6,2,6.1,2.3,8.9,0.7s4.4-4.8,4-8c-0.1-0.9,0.3-1.8,1.1-2.2c0.8-0.5,1.8-0.4,2.5,0.2
	c2.6,2,6.1,2.3,8.9,0.7s4.4-4.8,4-8c-0.1-0.9,0.3-1.8,1.1-2.2c0.8-0.5,1.8-0.4,2.5,0.2c1.7,1.3,3.9,1.9,6,1.6
	c0.9-0.1,1.8,0.3,2.2,1.1c0.5,0.8,0.4,1.8-0.2,2.5c-2,2.6-2.3,6.1-0.7,8.9c1.6,2.8,4.8,4.4,8,4c0.9-0.1,1.8,0.3,2.2,1.1
	c0.4,0.8,0.4,1.8-0.2,2.5c-2,2.6-2.3,6.1-0.7,8.9c1.6,2.8,4.8,4.4,8,4c0.9-0.1,1.8,0.3,2.2,1.1C319,648.9,318.9,649.9,318.3,650.6z
	 M520.7,706.8c-0.3,0.5-0.9,0.8-1.4,0.9L408,726.3c-0.1,0-0.2,0-0.4,0c-1.1,0-2-0.8-2.2-1.9l-18.6-111.3c-0.1-0.6,0-1.2,0.4-1.7
	c0.3-0.5,0.9-0.8,1.4-0.9L499.9,592c1.2-0.2,2.4,0.6,2.6,1.8l18.6,111.3C521.2,705.7,521.1,706.3,520.7,706.8z M666.5,603.3
	l-14,54.5c-0.3,1-1.2,1.7-2.2,1.7c-0.2,0-0.4,0-0.6-0.1l-93.4-24c-0.6-0.1-1.1-0.5-1.4-1c-0.3-0.5-0.4-1.1-0.2-1.7l14-54.5
	c0.3-1.2,1.5-1.9,2.7-1.6l93.4,24c0.6,0.1,1.1,0.5,1.4,1C666.6,602.1,666.7,602.7,666.5,603.3z M793.7,686.2c0,20.9-22,37.9-49,37.9
	s-49-17-49-37.9s22-37.9,49-37.9S793.7,665.3,793.7,686.2z"/>
<rect x="451.4" y="652.7" transform="matrix(0.1648 0.9863 -0.9863 0.1648 1044.179 77.6791)" class="st0" width="49.7" height="5.5"/>
<path class="st0" d="M716.6,686.2c0,11.5,12.6,20.9,28.1,20.9s28.1-9.4,28.1-20.9s-12.6-20.9-28.1-20.9S716.6,674.7,716.6,686.2z"/>
<path class="st0" d="M700,686.2c0,18.4,20,33.4,44.6,33.4s44.6-15,44.6-33.4s-20-33.4-44.6-33.4S700,667.7,700,686.2z M777.1,686.2
	c0,14-14.6,25.3-32.5,25.3s-32.5-11.4-32.5-25.3c0-14,14.6-25.3,32.5-25.3S777.1,672.2,777.1,686.2z"/>
<path class="st0" d="M285.8,638.1c-3.8,0-6.9,3.1-6.9,6.9s3.1,6.9,6.9,6.9s6.9-3.1,6.9-6.9S289.6,638.1,285.8,638.1z"/>
<path class="st0" d="M268.6,553.9l1-2.9c-0.7,0.6-1.5,1.1-2.4,1.4l-4.8,1.6c-0.8,0.3-1.6,0.4-2.4,0.4c-1.1,0-2.2-0.3-3.2-0.7
	c-1.7-0.9-3.1-2.3-3.7-4.2l-1.6-4.8l0,0c-1.3-3.8,0.7-7.9,4.5-9.2l4.8-1.6c3.8-1.3,7.9,0.7,9.2,4.5l1.6,4.8c0.1,0.4,0.2,0.7,0.3,1.1
	l18.3-52.5L248.7,506v10.8c0.3-0.1,0.5-0.3,0.9-0.4l4.8-1.6c3.8-1.3,7.9,0.7,9.2,4.5l1.6,4.8c1.3,3.8-0.7,7.9-4.5,9.2l-4.8,1.6
	c-0.8,0.3-1.6,0.4-2.4,0.4c-1.1,0-2.2-0.3-3.2-0.7c-0.6-0.3-1.2-0.7-1.7-1.2v21.2h19.8C268.5,554.4,268.5,554.1,268.6,553.9z"/>
<path class="st0" d="M449,634.8l3.1,18.3c0.2,1.2-0.6,2.4-1.8,2.6l-14.2,2.4c-0.6,0.1-1.2,0-1.7-0.4c-0.5-0.3-0.8-0.9-0.9-1.4
	l-3.1-18.3l-5.4,0.9l8.2,49l5.4-0.9l-3.6-21c-0.2-1.2,0.6-2.4,1.8-2.6L451,661c0.6-0.1,1.2,0,1.7,0.4c0.5,0.3,0.8,0.9,0.9,1.4
	l3.5,20.9l5.4-0.9l-8.2-49L449,634.8z"/>
<path class="st0" d="M726.2,515.8c1.6-0.6,3.3-0.6,4.8,0.1c1.5,0.7,2.6,1.8,3.2,3.3l0.1-16h-22l-0.1,17.9L726.2,515.8z"/>
<path class="st0" d="M252.3,530.6c0.7,0.3,1.4,0.4,2.1,0.1l4.8-1.6c1.5-0.5,2.3-2.1,1.7-3.6l-1.6-4.8c-0.5-1.5-2.1-2.3-3.6-1.8
	l-4.8,1.6c-1.5,0.5-2.2,2.1-1.7,3.6l1.6,4.8C251.1,529.7,251.6,530.2,252.3,530.6z"/>
<polygon class="st0" points="449,485 447.2,480.4 445.7,481 443.4,483.4 444.7,486.7 "/>
<path class="st0" d="M304.4,645.3c-1.9-3.2-2.1-7-0.9-10.4c-3.5-0.7-6.7-2.8-8.5-6.1c-1.9-3.3-2.1-7.1-0.9-10.4
	c-0.6-0.1-1.3-0.3-1.9-0.5c-0.7,3.5-2.8,6.7-6.1,8.5c-3.2,1.9-7,2.1-10.4,0.9c-0.7,3.5-2.8,6.7-6.1,8.5c-3.2,1.9-7,2.1-10.4,0.9
	c-0.1,0.6-0.3,1.3-0.5,1.9c3.5,0.7,6.7,2.8,8.5,6.1c1.9,3.2,2.1,7,0.9,10.4c3.5,0.7,6.7,2.8,8.5,6.1c1.9,3.3,2.1,7.1,0.9,10.4
	c0.6,0.1,1.3,0.3,1.9,0.5c0.7-3.5,2.8-6.7,6.1-8.5c3.2-1.9,7-2.1,10.4-0.9c0.7-3.5,2.8-6.7,6.1-8.5c3.2-1.9,7.1-2.1,10.4-0.9
	c0.1-0.6,0.3-1.3,0.5-1.9C309.4,650.7,306.2,648.5,304.4,645.3z M285.8,656.3c-6.3,0-11.3-5.1-11.3-11.3c0-6.3,5.1-11.3,11.3-11.3
	s11.3,5.1,11.3,11.3C297.1,651.2,292,656.3,285.8,656.3z"/>
<path class="st0" d="M735.7,435.8c0-7-5.7-12.7-12.7-12.7s-12.7,5.7-12.7,12.7v63h25.4V435.8z"/>
<path class="st0" d="M441.2,490.4l-1.3-3.3l-2.5,2.6l22.7,21.5l4.2-4.1c0.2-0.2,0.4-0.3,0.6-0.4l-8.5-22.1l-4.2-3.7l1.7,4.5
	c0.2,0.6,0.2,1.2,0,1.7s-0.7,1-1.2,1.2l-8.6,3.3c-0.3,0.1-0.5,0.1-0.8,0.1C442.4,491.8,441.5,491.3,441.2,490.4z"/>
<path class="st0" d="M365.7,201.8c0.1,0.1,0.2,0.2,0.3,0.3l14.2,11l14.2-11c0.1-0.1,0.2-0.2,0.3-0.3c2.1-1.6,3.4-4,3.4-6.6
	c0-4.6-3.7-8.3-8.3-8.3c-3.3,0-6.3,2-7.6,5c-0.4,0.8-1.2,1.3-2,1.3c-0.9,0-1.7-0.5-2-1.3c-1.3-3-4.3-5-7.6-5c-4.6,0-8.3,3.7-8.3,8.3
	C362.3,197.8,363.5,200.2,365.7,201.8z"/>
<path class="st0" d="M490.2,159.5c0.8,1.4,2.6,1.9,4,1.1c0.7-0.4,1.2-1,1.4-1.8c0.2-0.8,0.1-1.6-0.3-2.2l0,0c-0.4-0.7-1-1.2-1.8-1.4
	c-0.2-0.1-0.5-0.1-0.7-0.1c-0.5,0-1,0.1-1.5,0.4C489.9,156.3,489.4,158.1,490.2,159.5z"/>
<path class="st0" d="M478.5,173.9c0.8,1.4,2.6,1.9,4,1.1c0.7-0.4,1.2-1,1.4-1.8c0.2-0.8,0.1-1.6-0.3-2.2l0,0l0,0
	c-0.4-0.7-1-1.2-1.8-1.4c-0.2-0.1-0.5-0.1-0.7-0.1c-0.5,0-1,0.1-1.5,0.4C478.1,170.6,477.6,172.5,478.5,173.9z"/>
<rect x="635.4" y="158.1" transform="matrix(-0.8159 -0.5782 0.5782 -0.8159 1069.9902 669.2382)" class="st0" width="12.3" height="12.3"/>
<path class="st0" d="M322.6,271.3c1-0.4,1.8-1.1,2.3-2c0.5-1,0.5-2.1,0.2-3.1c-0.4-1-1.1-1.8-2-2.3c-0.6-0.3-1.2-0.4-1.8-0.4
	c-0.4,0-0.9,0.1-1.3,0.2c-1,0.4-1.8,1.1-2.3,2c-0.5,1-0.5,2.1-0.2,3.1C318.2,271,320.5,272.1,322.6,271.3z"/>
<polygon class="st0" points="695.6,369.7 669.9,384.5 695.6,399.4 "/>
<rect x="250.9" y="204.7" transform="matrix(-0.816 -0.578 0.578 -0.816 344.9215 531.5245)" class="st0" width="12.3" height="12.3"/>
<path class="st0" d="M725.9,245.3l0.8,5.8l4.1-4.2c0.5-0.5,1.2-0.8,2-0.6l5.7,1l-2.7-5.1c-0.3-0.6-0.3-1.4,0-2.1l2.7-5.1l-5.7,1
	c-0.7,0.1-1.5-0.1-2-0.6l-4.1-4.2l-0.8,5.8c-0.1,0.7-0.6,1.4-1.2,1.7l-5.2,2.6l5.2,2.6C725.3,244,725.8,244.6,725.9,245.3z"/>
<path class="st0" d="M310.2,401.6c3.9,0,7-3.1,7-7s-3.1-7-7-7s-7,3.1-7,7S306.3,401.6,310.2,401.6z"/>
<path class="st0" d="M526.9,482.4L483.1,441l-7.5,8c-0.3,0.4-0.8,0.5-1.2,0.6l17.5,46.1c0,0,0.1,0,0.1,0.1l20.4,19.3L526.9,482.4z"
	/>
<path class="st0" d="M302.2,554.6H327c16.1-45.3,26.9-74.9,32.3-88.5c-3.5,2-8.1,4.1-11.8,4.1c-0.9,0-1.8-0.1-2.5-0.4
	c-3.7-1.5-4.5-6.7-5.3-11.6c-0.3-2.2-0.9-5.8-1.7-6.4c-1-0.2-5.1,2.1-7.2,3.4c-4.3,2.5-7.9,4.7-10.7,3.5c-3.4-1.4-6-9.6-7.5-16.1
	l-0.7,0.6L273,554.6h24.5c0-0.1,0-0.2,0-0.4l27.4-80.1c0.4-1.2,1.7-1.8,2.8-1.4c1.2,0.4,1.8,1.7,1.4,2.8L302.2,554.6z"/>
<polygon class="st0" points="510.4,519.4 495.4,505.2 505.2,531.2 "/>
<rect x="437.9" y="411.1" transform="matrix(-0.9333 0.3592 -0.3592 -0.9333 1006.933 636.0212)" class="st0" width="12.9" height="0.9"/>
<polygon class="st0" points="398.1,531.3 420.6,552.8 431.9,541 409.2,519.5 "/>
<path class="st0" d="M541.4,449.8c-0.2-0.3-0.4-0.7-0.4-1.2c-1.2-54.4-3.9-62.1-4.7-63.1c-7.3-7.3-13.8-7.1-23.5-6.8
	c-2.1,0.1-4.3,0.2-6.6,0.2c-13,0.1-26.1,0-39.1,0c-6.5,0-13,0-19.5,0c-7.9,0-9.1,3.5-11,8.9c-2.2,6.3-5,14.1-20.6,14.1
	c-8.7,0-10.3-8.4-11.6-15.1c-1.4-7.5-2.6-12.1-8.1-12.1c-1.4,0-2.6,0.6-3.7,1.7c-5.9,6.4-5.7,27-5.1,36.2h11.3
	c7.7,0,18.5,1.9,25.6,7.1l8.2-3.2l0,0l1.8-0.7l-1.1-2.9c-0.4-1.1,0.1-2.4,1.3-2.9l16.2-6.2c1.1-0.4,2.4,0.1,2.9,1.3l1.1,2.9l1.3-0.5
	c0.6-0.2,1.2-0.2,1.7,0s1,0.7,1.2,1.2l9.5,25.1l9.3-9.9c4-4.2,10.7-4.4,14.9-0.4l42.4,40.2L541.4,449.8z"/>
<path class="st0" d="M533.2,468.2l-43.6-41.3c-2.4-2.3-6.3-2.2-8.6,0.2l-9,9.5c-0.1,0.8-0.6,1.5-1.3,1.8c-0.2,0.1-0.3,0.1-0.5,0.1
	l2.6,6.8l8.6-9.1c0.8-0.9,2.3-0.9,3.2-0.1l44.2,41.9L533.2,468.2z"/>
<polygon class="st0" points="433.7,554.6 446.2,554.6 439.7,548.4 "/>
<path class="st0" d="M291.9,487.1l16-45.9c0.1-0.3,0.3-0.6,0.6-0.9l49.9-47.5c0.6-0.6,1.5-0.8,2.4-0.5c0.8,0.3,1.4,1.1,1.4,1.9
	l1.2,19.8c3.3-1,6.7-1.5,10.2-1.5h9.5c-0.5-7.2-1.4-30.8,6.3-39.2c1.9-2.1,4.3-3.2,7-3.2c9.4,0,11.1,8.7,12.4,15.7
	c1.5,7.8,2.7,11.4,7.2,11.4c12.4,0,14.3-5.2,16.4-11.1c2-5.6,4.2-11.9,15.2-11.9c6.5,0,13,0,19.5,0c13,0,26,0,39.1,0
	c2.3,0,4.4-0.1,6.5-0.2c10.1-0.4,18.1-0.7,26.9,8.1c1.3,1.3,4.3,4.4,5.8,58.7l5-11.1c0.6-1.4,1.7-2.5,3.2-3c1.4-0.5,3-0.5,4.4,0.1
	l118.3,52.6c2.8,1.2,4.1,4.5,3,7.4l-0.2,0.8l6.7,3c1.4,0.6,2.5,1.7,3,3.2c0.5,1.4,0.5,3-0.1,4.4L672,535.8l1.2,0.5l34.9-13.4
	l0.2-19.6c-1.2-0.1-2.1-1-2.1-2.2v-60c-0.1,0-0.2,0.1-0.4,0.1h-8.2l0.1,70.5c0,1.2-1,2.2-2.2,2.2l0,0c-1.2,0-2.2-1-2.2-2.2
	l-0.1-72.8c0-1.2,1-2.2,2.2-2.2h10.5l0,0c0.1,0,0.2,0.1,0.4,0.1v-1c0-9.5,7.7-17.2,17.2-17.2s17.2,7.7,17.2,17.2v65.3
	c0,0.9-0.5,1.7-1.3,2l-0.2,27c0,0.1-0.1,0.2-0.1,0.4l9.3,24.2h4.4V345.1H248.7v156.2l41.6-14.3C290.8,486.8,291.4,486.9,291.9,487.1
	z M664.3,382.6l32.4-18.7c0.7-0.4,1.5-0.4,2.2,0s1.1,1.1,1.1,1.9v37.4c0,0.8-0.4,1.5-1.1,1.9c-0.3,0.2-0.7,0.3-1.1,0.3
	c-0.4,0-0.8-0.1-1.1-0.3l-32.4-18.7c-0.7-0.4-1.1-1.1-1.1-1.9S663.6,383,664.3,382.6z M612.6,374.7l2.5-10.4l2.5,10.4l10.4,2.5
	l-10.4,2.5l-2.5,11.4l-2.5-11.4l-10.4-2.5L612.6,374.7z M310.2,383.1c6.3,0,11.5,5.1,11.5,11.5c0,6.3-5.1,11.5-11.5,11.5
	c-6.3,0-11.5-5.1-11.5-11.5C298.7,388.3,303.9,383.1,310.2,383.1z M272.3,375.7l9.7-15.1c0.3-0.5,0.8-0.8,1.4-1
	c0.6-0.1,1.2,0,1.7,0.3l15.1,9.7c1,0.7,1.3,2,0.7,3.1l-9.7,15.1c-0.4,0.7-1.1,1-1.9,1c-0.4,0-0.8-0.1-1.2-0.4l-15.1-9.7
	C271.9,378.1,271.6,376.8,272.3,375.7z M278.8,423.8c-0.1,0-0.2,0-0.3,0c-0.8-0.1-1.5-0.6-1.8-1.4l-6.9-16.8
	c-0.3-0.7-0.2-1.6,0.3-2.2s1.3-1,2.1-0.9l18,2.4c0.8,0.1,1.5,0.6,1.8,1.4c0.3,0.7,0.2,1.6-0.3,2.2l-11.1,14.4
	C280.2,423.5,279.5,423.8,278.8,423.8z"/>
<path class="st0" d="M636.5,527.1c1.4-3.2,5.1-4.6,8.3-3.2l22.8,10.1l16.7-37.6c0.1-0.3,0.1-0.6,0-1c-0.1-0.3-0.4-0.6-0.7-0.7
	l-118.3-52.6c-0.6-0.3-1.4,0-1.6,0.6L520.2,532l1.3-1.2c18.5-17.5,22.9-27.9,23-28.3c0.3-0.8,0.8-1.8,1.3-2.7c0.2-0.4,0.6-0.7,1-0.9
	c0.6-1.3,1.4-2.6,2.3-3.5c0.3-0.7,0.6-1.3,1.2-1.8c0.9-0.9,2.2-1.4,3.4-1.3c0.4,0,0.8,0.1,1.2,0.2c1.7-0.6,3.5-1.2,5-1.6l34.7-10.5
	c0.7-0.2,1.3-0.4,1.8-0.6c1.5-0.6,3.6-1.4,5.9,0.3l3.5-3.3c1-0.9,2.6-0.7,3.7,0.4l1.3,1.3c1.1,1.2,1.3,2.9,0.3,3.8l-3.6,3.4
	c1.9,3.2,0.7,6.8,0.2,8.4l-13.8,33c-0.3,0.9-0.9,2.5-1.7,4.3c0.9,1.8,0.5,4.1-1,5.5c-0.7,0.7-1.6,1.1-2.5,1.2
	c-0.4,0.6-0.7,1.1-1.1,1.4c-0.3,0.3-0.7,0.6-1.1,0.9c-0.2,0.6-0.5,1.1-1.1,1.4c-1,0.5-1.9,0.9-2.9,1.2c0,0-6.8,2.4-18.5,11.8h42.7
	l0.6-6.4c0.2-1.7,0.9-3.2,2.2-4.3s2.9-1.6,4.6-1.4L629,544L636.5,527.1z"/>
<polygon class="st0" points="279.4,417.1 285.8,408.8 275.4,407.5 "/>
<rect x="279.8" y="367.5" transform="matrix(-0.8405 -0.5418 0.5418 -0.8405 324.6802 844.0422)" class="st0" width="13.5" height="13.5"/>
<path class="st0" d="M612.4,547.4c-0.4,0.3-0.6,0.8-0.7,1.2l-0.5,6h13.1l2.9-6.4l-13.4-1.2C613.2,547,612.7,547.1,612.4,547.4z"/>
<path class="st0" d="M459.2,554.6l-15.1-14.1c-0.4-0.4-0.7-1-0.7-1.6s0.2-1.2,0.6-1.6l14.2-15c0.8-0.9,2.2-0.9,3.1-0.2l14.3,12.3
	l-1.6-4.2l-10.7-10c-0.9-0.8-1-2.2-0.1-3.1l4.1-4.4l-0.6-1.5l-4.9,4.7c-0.4,0.4-1,0.6-1.6,0.6s-1.1-0.2-1.5-0.6l-25.9-24.5
	c-0.9-0.8-0.9-2.3-0.1-3.2l5.5-5.8l-0.3-0.9c-0.1-0.2-0.1-0.4-0.1-0.6l-2.4-6.4L381.5,532l28.8,22.6h5.8L393.4,533
	c-0.9-0.8-0.9-2.3-0.1-3.1l14.2-15c0.8-0.9,2.3-0.9,3.2-0.1l25.9,24.5c0.4,0.4,0.7,1,0.7,1.6s-0.2,1.2-0.6,1.6L425,554.6h2.5
	l10.5-11c0.4-0.4,1-0.7,1.6-0.7s1.2,0.2,1.6,0.6l11.5,11h6.5V554.6z M441.1,536.8L441.1,536.8c-0.6,0-1.2-0.2-1.6-0.6l-25.9-24.5
	c-0.9-0.8-0.9-2.3-0.1-3.2l14.2-15c0.4-0.4,1-0.7,1.6-0.7s1.2,0.2,1.6,0.6l25.9,24.5c0.9,0.8,0.9,2.3,0.1,3.2l-14.2,15
	C442.2,536.6,441.7,536.8,441.1,536.8z"/>
<rect x="419.6" y="506.7" transform="matrix(0.7261 0.6876 -0.6876 0.7261 473.182 -158.2124)" class="st0" width="31.2" height="16.2"/>
<path class="st1" d="M541.1,238.4c0.7-0.7,0.5-1.4-0.4-1.7l-9.5-2.7c-0.9-0.3-1.3-1.2-1-2l14-32.5c0.4-0.9,0.7-1.6,0.6-1.6
	c0,0-0.6,0.6-1.1,1.3l-30.8,38.7c-0.6,0.7-0.3,1.5,0.6,1.8l9.5,2.7c0.9,0.3,1.2,1.1,0.7,1.9L508,270.1c-0.5,0.8-0.8,1.5-0.8,1.5
	s0.6-0.5,1.3-1.2L541.1,238.4z"/>
<path class="st1" d="M628.6,168.1l13.6,9.7c0.4,0.3,0.8,0.4,1.3,0.4c0.1,0,0.3,0,0.4,0c0.6-0.1,1.1-0.4,1.4-0.9l9.7-13.6
	c0.3-0.5,0.5-1.1,0.4-1.7c-0.1-0.6-0.4-1.1-0.9-1.4l-13.6-9.7c-0.5-0.3-1.1-0.5-1.7-0.4c-0.6,0.1-1.1,0.4-1.4,0.9l-9.7,13.6
	C627.4,166,627.6,167.4,628.6,168.1z M640.1,155.7l10,7.1l-7.1,10l-10-7.1L640.1,155.7z"/>
<path class="st1" d="M644.2,138.7c0.1,0,0.1,0,0.2,0c1.1,0,2.1-0.9,2.2-2l1.3-13.4c0.1-1.2-0.8-2.3-2-2.4c-1.2-0.1-2.3,0.8-2.4,2
	l-1.3,13.4C642.1,137.5,643,138.6,644.2,138.7z"/>
<path class="st1" d="M659.2,157.9c-0.1,1.2,0.8,2.3,2,2.4l12.6,1.2c0.1,0,0.1,0,0.2,0c1.1,0,2.1-0.9,2.2-2c0.1-1.2-0.8-2.3-2-2.4
	l-12.6-1.2C660.4,155.7,659.3,156.7,659.2,157.9z"/>
<path class="st1" d="M656.9,146.1c0.5,0,1-0.2,1.5-0.6l9.9-8.6c0.9-0.8,1-2.2,0.2-3.1c-0.8-0.9-2.2-1-3.1-0.2l-9.9,8.6
	c-0.9,0.8-1,2.2-0.2,3.1C655.6,145.8,656.3,146.1,656.9,146.1z"/>
<path class="st1" d="M612.5,155.6l12.6,1.2c0.1,0,0.1,0,0.2,0c1.1,0,2.1-0.9,2.2-2c0.1-1.2-0.8-2.3-2-2.4l-12.6-1.2
	c-1.2-0.1-2.3,0.8-2.4,2C610.4,154.4,611.3,155.5,612.5,155.6z"/>
<path class="st1" d="M628.2,142.6c0.4,0.6,1.1,0.9,1.8,0.9c0.5,0,1-0.2,1.4-0.5c1-0.8,1.2-2.2,0.4-3.1l-8-10.4
	c-0.8-1-2.2-1.2-3.1-0.4c-1,0.8-1.2,2.2-0.4,3.1L628.2,142.6z"/>
<path class="st1" d="M362.7,205.1c0.1,0.1,0.2,0.2,0.3,0.3l15.9,12.3c0.4,0.3,0.9,0.5,1.4,0.5s1-0.2,1.4-0.5l15.9-12.3
	c0.1-0.1,0.2-0.2,0.3-0.2c3.1-2.4,4.8-6,4.8-9.9c0-7-5.7-12.7-12.7-12.7c-3.8,0-7.2,1.7-9.6,4.4c-2.4-2.7-5.9-4.4-9.6-4.4
	c-7,0-12.7,5.7-12.7,12.7C357.8,199,359.6,202.6,362.7,205.1z M370.6,186.9c3.3,0,6.3,2,7.6,5c0.4,0.8,1.2,1.3,2,1.3
	c0.9,0,1.7-0.5,2-1.3c1.3-3,4.3-5,7.6-5c4.6,0,8.3,3.7,8.3,8.3c0,2.6-1.2,5-3.4,6.6c-0.1,0.1-0.2,0.2-0.3,0.3l-14.2,11L366,202
	c-0.1-0.1-0.2-0.2-0.3-0.3c-2.1-1.6-3.4-4-3.4-6.6C362.3,190.6,366,186.9,370.6,186.9z"/>
<path class="st1" d="M713.4,243.1l8.2,4.1l1.3,9.1c0.1,0.8,0.7,1.5,1.5,1.8c0.2,0.1,0.5,0.1,0.7,0.1c0.6,0,1.2-0.2,1.6-0.7l6.4-6.6
	l9,1.5c0.8,0.1,1.7-0.2,2.2-0.9c0.5-0.7,0.6-1.6,0.2-2.3l-4.3-8.1l4.3-8.1c0.4-0.8,0.3-1.7-0.2-2.3c-0.5-0.7-1.3-1-2.2-0.9l-9,1.5
	l-6.4-6.6c-0.6-0.6-1.5-0.8-2.3-0.6c-0.8,0.3-1.4,1-1.5,1.8l-1.3,9.1l-8.2,4.1c-0.8,0.4-1.2,1.2-1.2,2S712.6,242.7,713.4,243.1z
	 M724.6,238.5c0.7-0.3,1.1-1,1.2-1.7l0.8-5.8l4.1,4.2c0.5,0.5,1.2,0.8,2,0.6l5.7-1l-2.7,5.1c-0.3,0.6-0.3,1.4,0,2.1l2.7,5.1l-5.7-1
	c-0.7-0.1-1.5,0.1-2,0.6l-4.1,4.2l-0.8-5.8c-0.1-0.7-0.6-1.4-1.2-1.7l-5.2-2.6L724.6,238.5z"/>
<path class="st1" d="M257.7,224.3c0.4,0.3,0.8,0.4,1.3,0.4c0.1,0,0.3,0,0.4,0c0.6-0.1,1.1-0.4,1.4-0.9l9.7-13.6
	c0.3-0.5,0.5-1.1,0.4-1.7s-0.4-1.1-0.9-1.4l-13.6-9.7c-1-0.7-2.4-0.5-3.1,0.5l-9.7,13.6c-0.7,1-0.5,2.4,0.5,3.1L257.7,224.3z
	 M255.5,202.3l10,7.1l-7.1,10l-10-7.1L255.5,202.3z"/>
<path class="st1" d="M480.1,165c-1,0.1-2,0.4-2.9,1c-3.5,2.1-4.7,6.6-2.6,10.2c1.4,2.3,3.9,3.7,6.4,3.7c1.3,0,2.6-0.3,3.7-1
	c1.7-1,2.9-2.6,3.4-4.5s0.2-3.9-0.8-5.6l0,0l-10-17l8.8-10.5l5.6,9.5c-1,0.1-2,0.4-2.9,1c-3.5,2.1-4.7,6.6-2.6,10.2
	c1.4,2.3,3.9,3.7,6.4,3.7c1.3,0,2.6-0.3,3.7-1c1.7-1,2.9-2.6,3.4-4.5s0.2-3.9-0.8-5.6l0,0l-10.6-18.1c-0.4-0.6-1-1-1.7-1.1
	s-1.4,0.2-1.9,0.8L473,150c-0.6,0.7-0.7,1.7-0.2,2.6L480.1,165z M481.8,169.5c0.8,0.2,1.4,0.7,1.8,1.4l0,0l0,0
	c0.4,0.7,0.5,1.5,0.3,2.2c-0.2,0.8-0.7,1.4-1.4,1.8c-1.4,0.8-3.2,0.4-4-1.1c-0.8-1.4-0.4-3.2,1.1-4c0.5-0.3,1-0.4,1.5-0.4
	C481.3,169.4,481.5,169.4,481.8,169.5z M493.5,155.1c0.8,0.2,1.4,0.7,1.8,1.4l0,0c0.4,0.7,0.5,1.5,0.3,2.2c-0.2,0.8-0.7,1.4-1.4,1.8
	c-1.4,0.8-3.2,0.4-4-1.1c-0.8-1.4-0.4-3.2,1.1-4c0.5-0.3,1-0.4,1.5-0.4C493,155,493.3,155.1,493.5,155.1z"/>
<path class="st1" d="M317.5,275.2c1.2,0.6,2.4,0.9,3.7,0.9c0.9,0,1.9-0.2,2.8-0.5c2.1-0.7,3.9-2.3,4.9-4.3s1.1-4.3,0.4-6.5l0,0
	l-7.8-22.6l8.7-6c1-0.7,1.3-2.1,0.6-3.1c-0.7-1-2.1-1.3-3.1-0.6l-10.1,7c-0.8,0.6-1.2,1.6-0.8,2.6l6,17.2c-1.4-0.2-2.8-0.1-4.1,0.3
	c-2.1,0.7-3.9,2.3-4.9,4.3s-1.1,4.3-0.4,6.5C314,272.5,315.5,274.2,317.5,275.2z M317.6,265.8c0.5-1,1.3-1.7,2.3-2
	c0.4-0.2,0.9-0.2,1.3-0.2c0.6,0,1.2,0.1,1.8,0.4c1,0.5,1.7,1.3,2,2.3c0.4,1,0.3,2.1-0.2,3.1s-1.3,1.7-2.3,2
	c-2.1,0.7-4.4-0.4-5.1-2.5C317.1,267.8,317.1,266.8,317.6,265.8z"/>
<path class="st2" d="M363.2,523.3c-0.6-0.5-1.2-0.7-1.9-0.7c-1.6,0.1-3.3,1.2-4.7,2.9l-23.2,29.1h69.8L363.2,523.3z"/>
<rect x="442.7" y="419.7" transform="matrix(-0.3591 -0.9333 0.9333 -0.3591 215.8732 990.3795)" class="st2" width="10.5" height="2.7"/>
<path class="st2" d="M502.6,537l-47.1-124.4l-4,1.5l4.6,11.9c0.4,1.1-0.1,2.4-1.3,2.9l-6.7,2.6c-0.3,0.1-0.5,0.1-0.8,0.1
	s-0.6-0.1-0.9-0.2c-0.5-0.2-1-0.7-1.2-1.2l-4.6-11.9l-4.4,1.7l13.2,34.4c0.4,0.1,0.9,0.2,1.2,0.5c0.9,0.8,0.9,2.1,0.2,3l9.3,24.2
	l0.5,0.5c0.7,0.6,0.9,1.6,0.6,2.5l16.4,42.7l0.5,0.4c0.6,0.6,0.8,1.5,0.6,2.3l3.9,10.2l1.4,1.2c0.9,0.8,1,2.2,0.3,3.1l3.4,8.9
	c0.1,0.3,0.1,0.6,0.1,0.8h8.4l1.5-1.4c-0.8-1.5-0.9-3.3-0.2-5L502.6,537z"/>
<rect x="248.7" y="309.4" class="st2" width="503.7" height="31.2"/>
<path class="st1" d="M456.8,518l-25.9-24.5c-0.4-0.4-1-0.6-1.6-0.6s-1.2,0.3-1.6,0.7l-14.2,15c-0.8,0.9-0.8,2.3,0.1,3.2l25.9,24.5
	c0.4,0.4,1,0.6,1.5,0.6c0,0,0,0,0.1,0c0.6,0,1.2-0.3,1.6-0.7l14.2-15C457.7,520.2,457.7,518.8,456.8,518z M440.9,531.4L418.3,510
	l11.2-11.8l22.7,21.5L440.9,531.4z"/>
<path class="st1" d="M664.3,386.4l32.4,18.7c0.3,0.2,0.7,0.3,1.1,0.3c0.4,0,0.8-0.1,1.1-0.3c0.7-0.4,1.1-1.1,1.1-1.9v-37.4
	c0-0.8-0.4-1.5-1.1-1.9c-0.7-0.4-1.5-0.4-2.2,0l-32.4,18.7c-0.7,0.4-1.1,1.1-1.1,1.9S663.6,386,664.3,386.4z M695.6,369.7v29.7
	l-25.7-14.8L695.6,369.7z"/>
<polygon class="st1" points="615,391.1 617.5,379.7 628,377.2 617.5,374.7 615,364.3 612.6,374.7 602.1,377.2 612.6,379.7 "/>
<path class="st2" d="M578.8,539.6c-0.4-0.3-0.7-0.6-1-0.9l-30.3-32.1c-2.4,4.3-8.6,14-22.9,27.5l-21.7,20.5h14.5
	c0.1-0.3,0.3-0.6,0.5-0.9l20-18.9c0.9-0.8,2.3-0.8,3.2,0.1l8.6,9.1c0.4,0.4,0.6,1,0.6,1.6s-0.3,1.2-0.7,1.6l-7.9,7.4H557
	C567.7,545.5,575.2,541.4,578.8,539.6z"/>
<polygon class="st2" points="525,553.1 536.8,553.1 544.9,545.5 539.4,539.6 "/>
<path class="st2" d="M553.6,496.7c-0.1,0-0.1,0-0.2,0.1c-0.1,0.1-0.1,0.3,0,0.4l34.3,36.3c0.1,0.1,0.3,0.1,0.4,0l0,0
	c0.1-0.1,0.1-0.3,0-0.4l-34.3-36.3C553.7,496.7,553.6,496.7,553.6,496.7z"/>
<path class="st1" d="M292,406.3c-0.3-0.7-1-1.3-1.8-1.4l-18-2.4c-0.8-0.1-1.6,0.2-2.1,0.9c-0.5,0.6-0.6,1.5-0.3,2.2l6.9,16.8
	c0.3,0.7,1,1.3,1.8,1.4c0.1,0,0.2,0,0.3,0c0.7,0,1.3-0.3,1.8-0.9l11.1-14.4C292.2,407.9,292.3,407,292,406.3z M279.4,417.1l-4-9.7
	l10.4,1.4L279.4,417.1z"/>
<path class="st1" d="M273,378.8l15.1,9.7c0.4,0.2,0.8,0.4,1.2,0.4c0.7,0,1.4-0.4,1.9-1l9.7-15.1c0.7-1,0.4-2.4-0.7-3.1l-15.1-9.7
	c-0.5-0.3-1.1-0.4-1.7-0.3s-1.1,0.5-1.4,1l-9.7,15.1C271.6,376.8,271.9,378.1,273,378.8z M284.6,364.9l11.3,7.3l-7.3,11.3l-11.3-7.3
	L284.6,364.9z"/>
<path class="st1" d="M310.2,406.1c6.3,0,11.5-5.1,11.5-11.5c0-6.3-5.1-11.5-11.5-11.5c-6.3,0-11.5,5.1-11.5,11.5
	C298.7,400.9,303.9,406.1,310.2,406.1z M310.2,387.6c3.9,0,7,3.1,7,7s-3.1,7-7,7s-7-3.1-7-7S306.3,387.6,310.2,387.6z"/>
<path class="st1" d="M816,276h-61.4c-1.2,0-2.2,1-2.2,2.2V305H248.7v-26.8c0-1.2-1-2.2-2.2-2.2H185c-1.2,0-2.2,1-2.2,2.2v479.3
	c0,1.2,1,2.2,2.2,2.2h631c1.2,0,2.2-1,2.2-2.2V278.2C818.2,277,817.2,276,816,276z M248.7,309.4h503.7v31.2H248.7V309.4z
	 M248.7,345.1h503.7v209.6H748l-9.3-24.2c0-0.1,0.1-0.2,0.1-0.4l0.2-27c0.8-0.4,1.3-1.1,1.3-2v-65.3c0-9.5-7.7-17.2-17.2-17.2
	s-17.2,7.7-17.2,17.2v1c-0.1,0-0.2-0.1-0.4-0.1l0,0H695c-1.2,0-2.2,1-2.2,2.2l0.1,72.8c0,1.2,1,2.2,2.2,2.2l0,0c1.2,0,2.2-1,2.2-2.2
	l-0.1-70.5h8.2c0.1,0,0.2-0.1,0.4-0.1v60c0,1.2,0.9,2.2,2.1,2.2l-0.2,19.6l-34.9,13.4l-1.2-0.5l16.7-37.6c0.6-1.4,0.7-2.9,0.1-4.4
	c-0.5-1.4-1.6-2.5-3-3.2l-6.7-3l0.2-0.8c1.2-2.8-0.2-6.1-3-7.4L557.7,427c-1.4-0.6-2.9-0.7-4.4-0.1c-1.4,0.5-2.5,1.6-3.2,3l-5,11.1
	c-1.5-54.3-4.5-57.3-5.8-58.7c-8.8-8.8-16.7-8.5-26.9-8.1c-2,0.1-4.2,0.2-6.5,0.2c-13,0.1-26,0-39.1,0c-6.5,0-13,0-19.5,0
	c-11,0-13.3,6.3-15.2,11.9c-2.1,6-4,11.1-16.4,11.1c-4.6,0-5.8-3.7-7.2-11.4c-1.3-7-3-15.7-12.4-15.7c-2.7,0-5,1.1-7,3.2
	c-7.7,8.4-6.7,32-6.3,39.2h-9.5c-3.5,0-6.9,0.5-10.2,1.5l-1.2-19.8c-0.1-0.9-0.6-1.6-1.4-1.9s-1.7-0.1-2.4,0.5l-49.9,47.5
	c-0.3,0.2-0.5,0.5-0.6,0.9l-16,45.9c-0.5-0.2-1.1-0.3-1.7-0.1l-41.6,14.3V345.1H248.7z M614.1,542.6c-1.7-0.1-3.3,0.4-4.6,1.4
	c-1.3,1.1-2.1,2.6-2.2,4.3l-0.6,6.4H564c11.8-9.4,18.5-11.8,18.5-11.8c0.9-0.3,1.9-0.7,2.9-1.2c0.6-0.3,0.9-0.8,1.1-1.4
	c0.4-0.3,0.8-0.5,1.1-0.9c0.3-0.3,0.7-0.8,1.1-1.4c0.9-0.2,1.8-0.6,2.5-1.2c1.5-1.5,1.9-3.7,1-5.5c0.8-1.8,1.4-3.4,1.7-4.3l13.8-33
	c0.5-1.6,1.7-5.2-0.2-8.4l3.6-3.4c0.9-0.9,0.8-2.6-0.3-3.8l-1.3-1.3c-1.1-1.2-2.7-1.3-3.7-0.4l-3.5,3.3c-2.2-1.7-4.4-0.9-5.9-0.3
	c-0.5,0.2-1.1,0.4-1.8,0.6L560,490.9c-1.5,0.4-3.3,1-5,1.6c-0.4-0.1-0.8-0.2-1.2-0.2c-1.2-0.1-2.5,0.4-3.4,1.3
	c-0.5,0.5-0.9,1.1-1.2,1.8c-0.9,1-1.7,2.2-2.3,3.5c-0.4,0.2-0.8,0.5-1,0.9c-0.6,1-1,1.9-1.3,2.7c-0.2,0.4-4.5,10.9-23,28.3l-1.3,1.2
	l43.5-89.3c0.3-0.6,1-0.9,1.6-0.6l118.3,52.6c0.3,0.1,0.5,0.4,0.7,0.7c0.1,0.3,0.1,0.6,0,1L667.6,534l-22.8-10.1
	c-3.2-1.4-6.9,0-8.3,3.2l-7.5,16.8L614.1,542.6z M627.1,548.2l-2.9,6.4h-13.1l0.5-6c0-0.5,0.3-0.9,0.7-1.2s0.8-0.5,1.3-0.4
	L627.1,548.2z M549.6,547.2c0.4-0.4,0.7-1,0.7-1.6s-0.2-1.2-0.6-1.6l-8.6-9.1c-0.8-0.9-2.3-0.9-3.2-0.1l-20,18.9
	c-0.3,0.2-0.4,0.6-0.5,0.9h-14.5l21.7-20.5c14.3-13.5,20.5-23.1,22.9-27.5l30.3,32.1c0.3,0.3,0.7,0.6,1,0.9
	c-3.6,1.7-11.1,5.9-21.7,15h-15.3L549.6,547.2z M536.8,553.1H525l14.3-13.6l5.6,5.9L536.8,553.1z M497.8,553.2l-1.5,1.4H488
	c0-0.3,0-0.6-0.1-0.8l-3.4-8.9c0.8-0.9,0.7-2.3-0.3-3.1l-1.4-1.2l-3.9-10.2c0.2-0.8,0.1-1.7-0.6-2.3l-0.5-0.4L461.3,485
	c0.3-0.8,0.1-1.8-0.6-2.5l-0.5-0.5l-9.3-24.2c0.8-0.9,0.7-2.2-0.2-3c-0.3-0.3-0.8-0.5-1.2-0.5l-13.2-34.4l4.4-1.7l4.6,11.9
	c0.2,0.6,0.6,1,1.2,1.2c0.3,0.1,0.6,0.2,0.9,0.2s0.5,0,0.8-0.1l6.7-2.6c1.1-0.4,1.7-1.7,1.3-2.9l-4.6-11.9l4-1.5l47,124.5l-5,11.3
	C496.9,549.9,497.1,551.7,497.8,553.2z M441.2,543.6c-0.4-0.4-1-0.6-1.6-0.6s-1.2,0.3-1.6,0.7l-10.5,11H425l11.7-12.2
	c0.4-0.4,0.6-1,0.6-1.6s-0.3-1.2-0.7-1.6l-25.9-24.5c-0.9-0.8-2.3-0.8-3.2,0.1l-14.2,15c-0.8,0.9-0.8,2.3,0.1,3.1l22.7,21.7h-5.8
	L381.5,532l53.8-57.4l2.4,6.4c0,0.2,0,0.4,0.1,0.6l0.3,0.9l-5.5,5.8c-0.8,0.9-0.8,2.3,0.1,3.2l25.9,24.5c0.4,0.4,1,0.6,1.5,0.6
	c0.6,0,1.1-0.2,1.6-0.6l4.9-4.7l0.6,1.5l-4.1,4.4c-0.8,0.9-0.8,2.3,0.1,3.1l10.7,10l1.6,4.2l-14.3-12.3c-0.9-0.8-2.3-0.7-3.1,0.2
	l-14.2,15c-0.4,0.4-0.6,1-0.6,1.6s0.3,1.2,0.7,1.6l15.1,14.1h-6.6L441.2,543.6z M446.2,554.6h-12.5l6-6.3L446.2,554.6z M420.6,552.8
	L398,531.3l11.2-11.8l22.7,21.5L420.6,552.8z M327.9,472.8c-1.2-0.4-2.4,0.2-2.8,1.4l-27.4,80.1c0,0.1,0,0.2,0,0.4H273l38.9-111.5
	l0.7-0.6c1.5,6.5,4,14.7,7.5,16.1c2.8,1.1,6.5-1,10.7-3.5c2.2-1.3,6.2-3.6,7.2-3.4c0.7,0.6,1.3,4.3,1.7,6.4c0.8,5,1.6,10.1,5.3,11.6
	c0.8,0.3,1.6,0.4,2.5,0.4c3.7,0,8.3-2.2,11.8-4.1c-5.3,13.6-16.2,43.3-32.3,88.5h-24.8l27-79C329.6,474.4,329,473.2,327.9,472.8z
	 M491.9,495.8l-0.1-0.1l-17.5-46.1c0.5-0.1,0.9-0.3,1.2-0.6l7.5-8l43.8,41.5l-14.5,32.7L491.9,495.8z M510.4,519.4l-5.2,11.7
	l-9.8-26L510.4,519.4z M484.5,436.2c-0.9-0.8-2.3-0.8-3.2,0.1l-8.6,9.1l-2.6-6.8c0.2,0,0.3,0,0.5-0.1c0.8-0.3,1.2-1,1.3-1.8l9-9.5
	c2.3-2.4,6.2-2.5,8.6-0.2l43.6,41.3l-4.4,9.9L484.5,436.2z M492.7,423.7c-4.2-4-10.9-3.8-14.9,0.4l-9.3,9.9l-9.5-25.1
	c-0.2-0.6-0.6-1-1.2-1.2c-0.5-0.2-1.2-0.3-1.7,0l-1.3,0.5l-1.1-2.9c-0.4-1.1-1.7-1.7-2.9-1.3l-16.2,6.2c-1.1,0.4-1.7,1.7-1.3,2.9
	l1.1,2.9l-1.8,0.7l0,0l-8.2,3.2c-7.2-5.2-17.9-7.1-25.6-7.1h-11.3c-0.6-9.1-0.8-29.8,5.1-36.2c1.1-1.2,2.2-1.7,3.7-1.7
	c5.5,0,6.6,4.6,8.1,12.1c1.3,6.7,2.9,15.1,11.6,15.1c15.6,0,18.4-7.8,20.6-14.1c1.9-5.4,3.2-8.9,11-8.9c6.5,0,13,0,19.5,0
	c13,0,26.1,0,39.1,0c2.3,0,4.5-0.1,6.6-0.2c9.7-0.3,16.2-0.6,23.5,6.8c0.8,1,3.5,8.7,4.7,63.1c0,0.4,0.2,0.8,0.4,1.2l-6.3,14.1
	L492.7,423.7z M447.4,415.7l3.8,9.8l-2.5,1l-3.8-9.8L447.4,415.7z M438.5,414.3l-0.3-0.9l12-4.6l0.3,0.9L438.5,414.3z M444.1,491.7
	l8.6-3.3c0.6-0.2,1-0.6,1.2-1.2c0.2-0.5,0.3-1.2,0-1.7l-1.7-4.5l4.2,3.7l8.5,22.1c-0.2,0.1-0.4,0.2-0.6,0.4l-4.2,4.1l-22.7-21.5
	l2.5-2.6l1.3,3.3c0.3,0.9,1.2,1.4,2.1,1.4C443.5,491.8,443.8,491.8,444.1,491.7z M443.4,483.4l2.3-2.4l1.5-0.6l1.8,4.6l-4.3,1.6
	L443.4,483.4z M450,473.1c-0.9-0.8-2.3-0.7-3.1,0.1l-3.7,3.9l-1.8,0.7l-2.6-6.9l8.9-9.5l5.5,14.2L450,473.1z M436.9,466.4l-1.6-4.1
	c-0.5-15.9-2.3-32.4-7.3-39.1l4.2-1.6l13.6,35.4L436.9,466.4z M386.5,437.6v-9.5H401c11.2,0,20.3,9.1,20.3,20.3v21.7h-34.8V465
	c1.7-0.6,2.9-2.2,2.9-4.1v-19.2C389.4,439.8,388.2,438.2,386.5,437.6z M421.2,425.7l2.3-0.9c0.1,0.1,0.2,0.2,0.3,0.2
	c2.9,2.9,5,11.1,6.1,23.3L421.2,425.7z M398.8,417.1c6.5,0,14.5,1.5,20.4,4.7l-1.6,0.6c-0.6,0.2-1,0.6-1.2,1.2
	c-0.2,0.5-0.3,1.2,0,1.7l2.1,5.5c-4.5-4.4-10.6-7.1-17.3-7.1h-16.8l0,0l0,0c-5.5,0.1-18.5,0.3-20.3,0.8l0,0l-0.3-5.9
	c0.1,0,0.2,0,0.3,0c3.1-1,6.3-1.5,9.6-1.5L398.8,417.1L398.8,417.1z M365.9,461.8c0.1-0.3,0.2-0.7,0.2-1l-1.9-32
	c0.3,0,0.5,0.1,0.8,0c1.1-0.2,9.2-0.5,17-0.6v10.3c-0.9,0.8-1.5,2-1.5,3.3V461c0,1.3,0.6,2.5,1.5,3.3v6h-19.5
	C364,466.4,365.1,463.5,365.9,461.8z M384.3,474.6h39.3c1.2,0,2.2-1,2.2-2.2v-22.3l5,13c0.1,3,0.1,6.2,0.1,9.5l-53.1,56.6l-11.9-9.3
	c-1.4-1.2-3.2-1.9-5.2-1.7c-2.8,0.2-5.7,1.9-7.8,4.6L335,545.2c11.6-32.6,20.3-56.5,25.7-70.6H384.3z M361.4,459.6
	c-4.6,3.2-12.3,7.1-14.7,6.1c-1.4-0.6-2.1-5.3-2.6-8.2c-0.7-4.6-1.3-8.7-4.3-9.9c-3-1.2-6.8,1-11.2,3.6c-2.2,1.3-5.8,3.3-6.7,3.3
	c-1.4-0.9-3.9-8.1-5.4-15.6l28.2-26.8c2.1-0.5,4.5-0.5,6.9,0.2c3.7,1.1,6.4,3.6,7.7,6.4l2.4,40.8
	C361.5,459.5,361.5,459.5,361.4,459.6z M356.5,525.5c1.3-1.7,3.1-2.8,4.7-2.9c0.8-0.1,1.4,0.1,1.9,0.7l39.9,31.3h-69.8L356.5,525.5z
	 M467.9,518.5l1.1-1.2l1.3,3.4L467.9,518.5z M448.8,538.8L460,527l19,16.3l4.4,11.4h-17.6L448.8,538.8z M515.1,520
	c0.1-0.1,0.1-0.3,0.2-0.4l22.1-49.8c0.1-0.1,0.3-0.2,0.4-0.3c0.5-0.5,0.6-1.2,0.5-1.9l16-35.9c0.1-0.3,0.4-0.5,0.7-0.7
	c0.3-0.1,0.6-0.1,1,0l118.3,52.6c0.6,0.3,0.9,1,0.6,1.6c0,0.1-0.1,0.2-0.1,0.3l-0.1,0.3L567.2,438c-2.9-1.3-6.3,0-7.5,2.8l-48.7,100
	l-8.9,8.4L515.1,520z M601.3,491.5l2.7-2.6c0.2,0.9,0,2-0.5,3.5l-3.8,9.1l-13.3-14.1l9.5-2.9c0.8-0.2,1.6-0.5,2.2-0.8
	c0.1,0,0.1-0.1,0.2-0.1l-2.3,2.2L601.3,491.5z M597.8,506.1l-8.1,19.4c-0.2,0.6-0.5,1.3-0.8,2.1L559,495.8c0.8-0.2,1.5-0.5,2.2-0.7
	l20.5-6.2L597.8,506.1z M588.1,533.1c0.1,0.1,0.1,0.3,0,0.4l0,0c-0.1,0.1-0.3,0.1-0.4,0l-34.3-36.3c-0.1-0.1-0.1-0.3,0-0.4
	c0.1-0.1,0.2-0.1,0.2-0.1c0.1,0,0.2,0,0.2,0.1L588.1,533.1z M640.6,528.9c0.4-0.9,1.5-1.3,2.4-0.9l24,10.7L629.9,553L640.6,528.9z
	 M672.9,541.2c0.8,0.1,1.6-0.2,2.1-0.8l52.9-20.3c0.5-0.2,1-0.2,1.4,0s0.8,0.6,1,1l12.9,33.6H637.8L672.9,541.2z M710.3,498.9v-63
	c0-7,5.7-12.7,12.7-12.7s12.7,5.7,12.7,12.7v63H710.3z M734.4,503.3l-0.1,16c-0.6-1.5-1.8-2.7-3.2-3.3c-1.5-0.7-3.2-0.7-4.8-0.1
	l-14,5.4l0.1-17.9h22V503.3z M248.7,533.4c0.5,0.4,1,0.9,1.7,1.2c1,0.5,2.1,0.7,3.2,0.7c0.8,0,1.6-0.1,2.4-0.4l4.8-1.6
	c3.8-1.3,5.8-5.4,4.5-9.2l-1.6-4.8c-1.3-3.8-5.5-5.8-9.2-4.5l-4.8,1.6c-0.3,0.1-0.6,0.3-0.9,0.4V506l41.6-14.3l-18.3,52.5
	c-0.1-0.4-0.1-0.7-0.3-1.1l-1.6-4.8c-1.3-3.8-5.4-5.8-9.2-4.5l-4.8,1.6c-3.8,1.3-5.8,5.4-4.5,9.2l0,0l1.6,4.8
	c0.6,1.8,1.9,3.3,3.7,4.2c1,0.5,2.1,0.7,3.2,0.7c0.8,0,1.6-0.1,2.4-0.4l4.8-1.6c0.9-0.3,1.7-0.8,2.4-1.4l-1,2.9
	c-0.1,0.3-0.1,0.5-0.1,0.8h-19.8v-21.2H248.7z M251,520.6l4.8-1.6c1.5-0.5,3.1,0.3,3.6,1.8l1.6,4.8c0.5,1.5-0.3,3.1-1.7,3.6
	l-4.8,1.6c-0.7,0.2-1.5,0.2-2.1-0.1c-0.7-0.3-1.2-0.9-1.4-1.6l-1.6-4.8C248.7,522.7,249.5,521.1,251,520.6z M267.3,546.7
	c-0.3,0.7-0.9,1.2-1.6,1.4l-4.8,1.6c-0.7,0.2-1.5,0.2-2.1-0.1c-0.7-0.3-1.2-0.9-1.4-1.6l-1.6-4.8c-0.5-1.5,0.3-3.1,1.7-3.6l4.8-1.6
	c1.5-0.5,3.1,0.3,3.6,1.7l1.6,4.8C267.7,545.3,267.7,546,267.3,546.7z M813.7,755.3H187.3V280.4h56.9V504v0.8v52.1
	c0,1.2,1,2.2,2.2,2.2h508.2c1.2,0,2.2-1,2.2-2.2V280.4h56.9L813.7,755.3L813.7,755.3z"/>
<path class="st1" d="M664.9,600.6l-93.4-24c-1.2-0.3-2.4,0.4-2.7,1.6l-14,54.5c-0.1,0.6-0.1,1.2,0.2,1.7s0.8,0.9,1.4,1l93.4,24
	c0.2,0,0.4,0.1,0.6,0.1c1,0,1.9-0.7,2.2-1.7l14-54.5c0.1-0.6,0.1-1.2-0.2-1.7C666,601.1,665.5,600.7,664.9,600.6z M648.8,654.5
	l-89.1-22.9l12.9-50.2l89.1,22.9L648.8,654.5z"/>
<path class="st1" d="M569.8,627.3c0.3,0.5,0.8,0.9,1.4,1l68.6,17.6c0.2,0,0.4,0.1,0.6,0.1c0.4,0,0.8-0.1,1.1-0.3
	c0.5-0.3,0.9-0.8,1-1.4l9-34.9c0.3-1.2-0.4-2.4-1.6-2.7l-68.6-17.6c-1.2-0.3-2.4,0.4-2.7,1.6l-9,34.9
	C569.4,626.2,569.5,626.8,569.8,627.3z M582.3,594l64.3,16.5l-7.9,30.6l-64.3-16.5L582.3,594z"/>
<path class="st1" d="M316.3,647c-3.3,0.4-6.4-1.1-8-4c-1.6-2.8-1.4-6.4,0.7-8.9c0.6-0.7,0.6-1.7,0.2-2.5c-0.5-0.8-1.3-1.2-2.2-1.1
	c-3.3,0.4-6.4-1.1-8-4c-1.6-2.8-1.4-6.4,0.7-8.9c0.6-0.7,0.6-1.7,0.2-2.5s-1.3-1.2-2.2-1.1c-2.1,0.3-4.3-0.3-6-1.6
	c-0.7-0.6-1.7-0.6-2.5-0.2c-0.8,0.4-1.2,1.3-1.1,2.2c0.4,3.3-1.1,6.4-4,8c-2.8,1.6-6.4,1.4-8.9-0.7c-0.7-0.6-1.7-0.6-2.5-0.2
	c-0.8,0.4-1.2,1.3-1.1,2.2c0.4,3.3-1.1,6.4-4,8c-2.8,1.6-6.4,1.4-8.9-0.7c-0.7-0.6-1.7-0.6-2.5-0.2c-0.8,0.4-1.2,1.3-1.1,2.2
	c0.3,2.1-0.3,4.3-1.6,6c-0.6,0.7-0.6,1.7-0.2,2.5c0.5,0.8,1.3,1.2,2.2,1.1c3.3-0.4,6.4,1.1,8,4c1.6,2.8,1.4,6.4-0.7,8.9
	c-0.6,0.7-0.6,1.7-0.2,2.5c0.5,0.8,1.3,1.2,2.2,1.1c3.3-0.4,6.4,1.1,8,4c1.6,2.8,1.4,6.4-0.7,8.9c-0.6,0.7-0.6,1.7-0.2,2.5
	c0.5,0.8,1.3,1.2,2.2,1.1c2.1-0.3,4.3,0.3,6,1.7c0.4,0.3,0.9,0.5,1.4,0.5c0.4,0,0.8-0.1,1.1-0.3c0.8-0.4,1.2-1.3,1.1-2.2
	c-0.4-3.3,1.1-6.4,4-8c2.8-1.6,6.4-1.4,8.9,0.7c0.7,0.6,1.7,0.6,2.5,0.2c0.8-0.4,1.2-1.3,1.1-2.2c-0.4-3.3,1.1-6.4,4-8
	c2.8-1.6,6.4-1.4,8.9,0.7c0.7,0.6,1.7,0.6,2.5,0.2c0.8-0.4,1.2-1.3,1.1-2.2c-0.3-2.1,0.3-4.3,1.6-6c0.6-0.7,0.6-1.7,0.2-2.5
	C318.1,647.3,317.2,646.9,316.3,647z M312.4,653.2c-3.4-1.2-7.2-1-10.4,0.9c-3.2,1.9-5.4,5-6.1,8.5c-3.4-1.2-7.2-1-10.4,0.9
	c-3.2,1.9-5.4,5-6.1,8.5c-0.6-0.2-1.3-0.4-1.9-0.5c1.2-3.4,1-7.2-0.9-10.4s-5-5.4-8.5-6.1c1.2-3.4,1-7.2-0.9-10.4s-5-5.4-8.5-6.1
	c0.2-0.6,0.4-1.3,0.5-1.9c3.4,1.2,7.2,1,10.4-0.9c3.2-1.9,5.4-5,6.1-8.5c3.4,1.2,7.2,1,10.4-0.9c3.2-1.9,5.4-5,6.1-8.5
	c0.6,0.2,1.3,0.4,1.9,0.5c-1.2,3.4-1,7.2,0.9,10.4s5,5.4,8.5,6.1c-1.2,3.4-1,7.2,0.9,10.4c1.9,3.3,5,5.4,8.5,6.1
	C312.7,652,312.5,652.6,312.4,653.2z"/>
<path class="st1" d="M285.8,633.6c-6.3,0-11.3,5.1-11.3,11.3c0,6.3,5.1,11.3,11.3,11.3s11.3-5.1,11.3-11.3
	C297.1,638.7,292,633.6,285.8,633.6z M285.8,651.8c-3.8,0-6.9-3.1-6.9-6.9s3.1-6.9,6.9-6.9s6.9,3.1,6.9,6.9S289.6,651.8,285.8,651.8
	z"/>
<path class="st1" d="M695.6,686.2c0,20.9,22,37.9,49,37.9s49-17,49-37.9s-22-37.9-49-37.9S695.6,665.3,695.6,686.2z M789.2,686.2
	c0,18.4-20,33.4-44.6,33.4s-44.6-15-44.6-33.4s20-33.4,44.6-33.4S789.2,667.7,789.2,686.2z"/>
<path class="st1" d="M712.1,686.2c0,14,14.6,25.3,32.5,25.3s32.5-11.4,32.5-25.3c0-14-14.6-25.3-32.5-25.3S712.1,672.2,712.1,686.2z
	 M772.7,686.2c0,11.5-12.6,20.9-28.1,20.9s-28.1-9.4-28.1-20.9s12.6-20.9,28.1-20.9S772.7,674.7,772.7,686.2z"/>
<path class="st1" d="M499.9,592l-111.3,18.6c-0.6,0.1-1.1,0.4-1.4,0.9s-0.5,1.1-0.4,1.7l18.6,111.3c0.2,1.1,1.1,1.9,2.2,1.9
	c0.1,0,0.2,0,0.4,0l111.3-18.6c0.6-0.1,1.1-0.4,1.4-0.9c0.3-0.5,0.5-1.1,0.4-1.7l-18.6-111.3C502.3,592.6,501.2,591.8,499.9,592z
	 M409.5,721.5l-17.9-106.9l106.9-17.9l17.9,106.9L409.5,721.5z"/>
<path class="st1" d="M457.5,629.5c-0.5-0.3-1.1-0.5-1.7-0.4l-9.8,1.6c-1.2,0.2-2,1.4-1.8,2.6l3.1,18.3l-9.8,1.6l-3.1-18.3
	c-0.1-0.6-0.4-1.1-0.9-1.4c-0.5-0.3-1.1-0.5-1.7-0.4l-9.8,1.6c-1.2,0.2-2,1.4-1.8,2.6l8.9,53.4c0.2,1.1,1.1,1.9,2.2,1.9
	c0.1,0,0.2,0,0.4,0l9.8-1.6c0.6-0.1,1.1-0.4,1.4-0.9s0.5-1.1,0.4-1.7l-3.5-20.9l9.8-1.6l3.5,20.9c0.2,1.2,1.4,2,2.6,1.8l9.8-1.6
	c0.6-0.1,1.1-0.4,1.4-0.9s0.5-1.1,0.4-1.7l-8.9-53.4C458.3,630.4,458,629.8,457.5,629.5z M457.1,683.8l-3.5-20.9
	c-0.1-0.6-0.4-1.1-0.9-1.4c-0.5-0.3-1.1-0.5-1.7-0.4l-14.2,2.4c-1.2,0.2-2,1.4-1.8,2.6l3.5,20.9l-5.4,0.9l-8.2-49l5.4-0.9l3.1,18.3
	c0.1,0.6,0.4,1.1,0.9,1.4c0.5,0.3,1.1,0.5,1.7,0.4l14.2-2.4c1.2-0.2,2-1.4,1.8-2.6l-3.1-18.3l5.4-0.9l8.2,49L457.1,683.8z"/>
<path class="st1" d="M476.3,625.7l-9.8,1.6c-0.6,0.1-1.1,0.4-1.4,0.9s-0.5,1.1-0.4,1.7l8.9,53.4c0.1,0.6,0.4,1.1,0.9,1.4
	c0.4,0.3,0.8,0.4,1.3,0.4c0.1,0,0.2,0,0.4,0l9.8-1.6c1.2-0.2,2-1.4,1.8-2.6l-8.9-53.4C478.6,626.3,477.5,625.5,476.3,625.7z
	 M477.6,680.4l-8.2-49l5.4-0.9l8.2,49L477.6,680.4z"/>
</svg>
