<?xml version="1.0" encoding="utf-8"?>
<!-- Generator: Adobe Illustrator 19.1.0, SVG Export Plug-In . SVG Version: 6.00 Build 0)  -->
<svg version="1.1" id="Layer_1" xmlns="http://www.w3.org/2000/svg" xmlns:xlink="http://www.w3.org/1999/xlink" x="0px" y="0px"
	 viewBox="0 100 1000 800" style="enable-background:new 0 100 1000 800;" xml:space="preserve">
<style type="text/css">
	.st0{fill:none;}
	.st1{opacity:0.5;fill:#562894;enable-background:new    ;}
	.st2{fill:#562894;}
</style>
<rect x="149.5" y="343.2" transform="matrix(-0.8405 -0.5418 0.5418 -0.8405 118.1658 765.892)" class="st0" width="44.7" height="44.7"/>
<path class="st0" d="M236,444c12.7,0,23.1-10.4,23.1-23.1s-10.4-23.1-23.1-23.1c-12.7,0-23.1,10.4-23.1,23.1S223.3,444,236,444z"/>
<path class="st0" d="M511.2,467h159.6V307.3H511.2V467z M646.2,417.6h-53.5c-1.1,0-2.1-0.9-2.1-2.1c0-1.1,0.9-2.1,2.1-2.1h53.5
	c1.1,0,2.1,0.9,2.1,2.1C648.2,416.7,647.3,417.6,646.2,417.6z M559.3,340h86.9c1.1,0,2.1,0.9,2.1,2.1c0,1.1-0.9,2.1-2.1,2.1h-86.9
	c-1.1,0-2.1-0.9-2.1-2.1C557.3,340.9,558.2,340,559.3,340z M535.9,376.7h110.3c1.1,0,2.1,0.9,2.1,2.1c0,1.1-0.9,2.1-2.1,2.1H535.9
	c-1.1,0-2.1-0.9-2.1-2.1C533.9,377.7,534.8,376.7,535.9,376.7z"/>
<path class="st0" d="M408,620.5c-4-4-2.1-11.8-0.2-19.3c1.1-4.5,2.7-10.7,1.3-12.2c-1.7-1.7-9.1-0.7-14.4,0
	c-7.6,1-14.1,1.9-17.1-1.1c-4.3-4.3-1.7-21.8-0.1-30.4l-4.4,1.7L205.7,728.6c0.5,20.1,7.7,37,20.4,47.7c11.2,9.5,25.8,13.3,42.4,11
	c8.8-8.7,131.8-130.8,166.3-164.1c-3.5,0.5-7.9,0.9-12.2,0.9C416.5,624.1,410.7,623.2,408,620.5z M378.2,619.3L249.8,747.8
	c-0.4,0.4-0.9,0.6-1.5,0.6c-0.5,0-1.1-0.2-1.5-0.6c-0.8-0.8-0.8-2.1,0-2.9l128.4-128.4c0.8-0.8,2.1-0.8,2.9,0
	C379,617.2,379,618.5,378.2,619.3z"/>
<path class="st0" d="M705.3,665.8h159.6V506.2H705.3V665.8z M733.3,538.8h106.9c1.1,0,2.1,0.9,2.1,2.1c0,1.1-0.9,2.1-2.1,2.1H733.3
	c-1.1,0-2.1-0.9-2.1-2.1C731.2,539.8,732.1,538.8,733.3,538.8z M784.5,581c0,1.1-0.9,2.1-2.1,2.1h-46.8c-1.1,0-2.1-0.9-2.1-2.1
	s0.9-2.1,2.1-2.1h46.8C783.6,578.9,784.5,579.9,784.5,581z M733.3,621.4h106.9c1.1,0,2.1,0.9,2.1,2.1c0,1.1-0.9,2.1-2.1,2.1H733.3
	c-1.1,0-2.1-0.9-2.1-2.1C731.2,622.3,732.1,621.4,733.3,621.4z"/>
<path class="st0" d="M433.4,536.4L382,555.8c-2.5,12.4-3.8,26.9-1.5,29.2c1.5,1.5,8.5,0.6,13.6-0.1c7.6-1,14.7-1.9,17.9,1.2
	c3.1,3.1,1.6,9.1-0.2,16.1c-1.5,5.8-3.3,13.1-0.9,15.4c3.7,3.7,18.9,2.5,28.5,0.7l19.7-55.7c0-6-1.5-13.1-7.1-18.3
	C445.4,538.2,438.3,536.6,433.4,536.4z"/>
<path class="st0" d="M511.2,665.8h159.6V506.2H511.2V665.8z M646.2,583.1h-46.8c-1.1,0-2.1-0.9-2.1-2.1s0.9-2.1,2.1-2.1h46.8
	c1.1,0,2.1,0.9,2.1,2.1S647.3,583.1,646.2,583.1z M539.3,538.8h106.9c1.1,0,2.1,0.9,2.1,2.1c0,1.1-0.9,2.1-2.1,2.1H539.3
	c-1.1,0-2.1-0.9-2.1-2.1C537.2,539.8,538.1,538.8,539.3,538.8z"/>
<polygon class="st1" points="151.3,490.1 177.1,456.5 135.1,450.9 "/>
<path class="st1" d="M341.1,374.2c-1.1,0-2.1-0.9-2.1-2.1c0-1.1,0.9-2.1,2.1-2.1h69.1l62.6-62.7H316.4V464l89.7-89.9h-65V374.2z"/>
<path class="st1" d="M448,370.1c1.1,0,2.1,0.9,2.1,2.1c0,1.1-0.9,2.1-2.1,2.1h-36.2L319.3,467H476V309.8l-60,60.3H448z"/>
<path class="st1" d="M705.3,467h159.6V307.3H705.3V467z M729.9,393.5h43.8c1.1,0,2.1,0.9,2.1,2.1c0,1.1-0.9,2.1-2.1,2.1h-43.8
	c-1.1,0-2.1-0.9-2.1-2.1C727.9,394.4,728.8,393.5,729.9,393.5z M729.9,430.2h86.9c1.1,0,2.1,0.9,2.1,2.1c0,1.1-0.9,2.1-2.1,2.1
	h-86.9c-1.1,0-2.1-0.9-2.1-2.1C727.9,431.1,728.8,430.2,729.9,430.2z"/>
<path class="st2" d="M478.1,303.2H314.4c-1.1,0-2.1,0.9-2.1,2.1V469l0,0c0,0.3,0.1,0.5,0.2,0.8c0.1,0.2,0.2,0.5,0.4,0.7l0,0l0,0
	c0.2,0.2,0.4,0.3,0.6,0.4c0.3,0.1,0.5,0.2,0.8,0.2H478c1.1,0,2.1-0.9,2.1-2.1V305.3C480.2,304.2,479.2,303.2,478.1,303.2z
	 M316.4,307.3h156.3L410.1,370H341c-1.1,0-2.1,0.9-2.1,2.1c0,1.1,0.9,2.1,2.1,2.1h65l-89.7,89.9V307.3H316.4z M476,467H319.3
	l92.6-92.8H448c1.1,0,2.1-0.9,2.1-2.1c0-1.1-0.9-2.1-2.1-2.1h-32l60.1-60.2V467H476z"/>
<path class="st2" d="M181.2,452.9l-49.1-6.5c-0.7-0.1-1.5,0.2-1.9,0.8c-0.4,0.6-0.5,1.4-0.3,2l18.9,45.7c0.3,0.7,0.9,1.2,1.6,1.3
	c0.1,0,0.2,0,0.3,0c0.6,0,1.2-0.3,1.6-0.8l30.2-39.2c0.4-0.6,0.5-1.4,0.3-2C182.6,453.5,181.9,453,181.2,452.9z M151.3,490.1
	l-16.2-39.2l42,5.6L151.3,490.1z"/>
<path class="st2" d="M137,374.5l41,26.4c0.3,0.2,0.7,0.3,1.1,0.3c0.7,0,1.3-0.3,1.7-0.9l26.4-41c0.3-0.5,0.4-1,0.3-1.5
	s-0.4-1-0.9-1.3l-41-26.4c-0.5-0.3-1-0.4-1.5-0.3s-1,0.4-1.3,0.9l-26.4,41C135.7,372.6,136,373.9,137,374.5z M165.1,334.6l37.6,24.2
	l-24.2,37.6l-37.6-24.2L165.1,334.6z"/>
<path class="st2" d="M236,448.1c15,0,27.2-12.2,27.2-27.2S251,393.7,236,393.7s-27.2,12.2-27.2,27.2
	C208.8,435.9,221,448.1,236,448.1z M236,397.8c12.7,0,23.1,10.4,23.1,23.1S248.7,444,236,444c-12.7,0-23.1-10.4-23.1-23.1
	C212.9,408.2,223.3,397.8,236,397.8z"/>
<path class="st2" d="M672.9,502.1H509.2c-1.1,0-2.1,0.9-2.1,2.1v163.7c0,1.1,0.9,2.1,2.1,2.1h163.7c1.1,0,2.1-0.9,2.1-2.1V504.1
	C675,503,674.1,502.1,672.9,502.1z M670.9,665.8H511.2V506.2h159.6L670.9,665.8L670.9,665.8z"/>
<path class="st2" d="M539.3,543h106.9c1.1,0,2.1-0.9,2.1-2.1c0-1.1-0.9-2.1-2.1-2.1H539.3c-1.1,0-2.1,0.9-2.1,2.1
	C537.2,542,538.1,543,539.3,543z"/>
<path class="st2" d="M646.2,578.9h-46.8c-1.1,0-2.1,0.9-2.1,2.1s0.9,2.1,2.1,2.1h46.8c1.1,0,2.1-0.9,2.1-2.1
	S647.3,578.9,646.2,578.9z"/>
<path class="st2" d="M672.9,303.2H509.2c-1.1,0-2.1,0.9-2.1,2.1V469c0,1.1,0.9,2.1,2.1,2.1h163.7c1.1,0,2.1-0.9,2.1-2.1V305.3
	C675,304.2,674.1,303.2,672.9,303.2z M670.9,467H511.2V307.3h159.6L670.9,467L670.9,467z"/>
<path class="st2" d="M559.3,344.1h86.9c1.1,0,2.1-0.9,2.1-2.1c0-1.1-0.9-2.1-2.1-2.1h-86.9c-1.1,0-2.1,0.9-2.1,2.1
	C557.3,343.2,558.2,344.1,559.3,344.1z"/>
<path class="st2" d="M646.2,413.5h-53.5c-1.1,0-2.1,0.9-2.1,2.1c0,1.1,0.9,2.1,2.1,2.1h53.5c1.1,0,2.1-0.9,2.1-2.1
	C648.2,414.4,647.3,413.5,646.2,413.5z"/>
<path class="st2" d="M535.9,380.9h110.3c1.1,0,2.1-0.9,2.1-2.1c0-1.1-0.9-2.1-2.1-2.1H535.9c-1.1,0-2.1,0.9-2.1,2.1
	C533.9,379.9,534.8,380.9,535.9,380.9z"/>
<path class="st2" d="M866.9,502.1H703.2c-1.1,0-2.1,0.9-2.1,2.1v163.7c0,1.1,0.9,2.1,2.1,2.1h163.7c1.1,0,2.1-0.9,2.1-2.1V504.1
	C869,503,868.1,502.1,866.9,502.1z M864.9,665.8H705.3V506.2h159.6V665.8z"/>
<path class="st2" d="M733.3,543h106.9c1.1,0,2.1-0.9,2.1-2.1c0-1.1-0.9-2.1-2.1-2.1H733.3c-1.1,0-2.1,0.9-2.1,2.1
	C731.2,542,732.1,543,733.3,543z"/>
<path class="st2" d="M733.3,625.5h106.9c1.1,0,2.1-0.9,2.1-2.1c0-1.1-0.9-2.1-2.1-2.1H733.3c-1.1,0-2.1,0.9-2.1,2.1
	S732.1,625.5,733.3,625.5z"/>
<path class="st2" d="M735.6,578.9c-1.1,0-2.1,0.9-2.1,2.1s0.9,2.1,2.1,2.1h46.8c1.1,0,2.1-0.9,2.1-2.1s-0.9-2.1-2.1-2.1H735.6z"/>
<path class="st2" d="M866.9,303.2H703.2c-1.1,0-2.1,0.9-2.1,2.1V469c0,1.1,0.9,2.1,2.1,2.1h163.7c1.1,0,2.1-0.9,2.1-2.1V305.3
	C869,304.2,868.1,303.2,866.9,303.2z M864.9,467H705.3V307.3h159.6V467z"/>
<path class="st2" d="M729.9,434.3h86.9c1.1,0,2.1-0.9,2.1-2.1c0-1.1-0.9-2.1-2.1-2.1h-86.9c-1.1,0-2.1,0.9-2.1,2.1
	C727.9,433.4,728.8,434.3,729.9,434.3z"/>
<path class="st2" d="M729.9,397.6h43.8c1.1,0,2.1-0.9,2.1-2.1c0-1.1-0.9-2.1-2.1-2.1h-43.8c-1.1,0-2.1,0.9-2.1,2.1
	C727.9,396.6,728.8,397.6,729.9,397.6z"/>
<path class="st2" d="M466.8,519.3l-95.7,36.3c-0.3,0.1-0.5,0.3-0.7,0.5L202.1,726.3c-0.4,0.4-0.6,0.9-0.6,1.5
	c0.4,21.6,8.1,40,21.8,51.6c9.8,8.3,22.1,12.6,35.8,12.6c3.4,0,6.9-0.3,10.5-0.8c0.4-0.1,0.8-0.3,1.1-0.6c1.4-1.4,145-144,171.5-169
	c0,0,0.1-0.1,0.1-0.2c0.1-0.1,0.2-0.3,0.3-0.5c0-0.1,0.1-0.1,0.1-0.2l32.8-92.9c0.9-2.5,0.3-5.3-1.7-7.1
	C472.1,518.9,469.3,518.3,466.8,519.3z M268.4,787.3c-16.5,2.3-31.2-1.5-42.4-11c-12.6-10.7-19.8-27.6-20.4-47.7L373,559.2l4.4-1.7
	c-1.6,8.6-4.2,26.1,0.1,30.4c2.9,2.9,9.5,2.1,17.1,1.1c5.4-0.7,12.7-1.7,14.4,0c1.4,1.4-0.1,7.6-1.3,12.2
	c-1.9,7.5-3.8,15.3,0.2,19.3c2.8,2.8,8.5,3.6,14.5,3.6c4.3,0,8.7-0.4,12.2-0.9C400.2,656.4,277.2,778.5,268.4,787.3z M439.4,618.3
	c-9.6,1.7-24.8,3-28.5-0.7c-2.4-2.4-0.6-9.6,0.9-15.4c1.7-7,3.2-13,0.2-16.1c-3.1-3.1-10.3-2.2-17.9-1.2c-5.1,0.7-12.1,1.6-13.6,0.1
	c-2.3-2.3-1-16.8,1.5-29.2l51.4-19.5c4.9,0.2,12.1,1.8,18.6,8c5.6,5.2,7,12.3,7.1,18.3L439.4,618.3z"/>
<path class="st2" d="M375.3,616.4L246.9,744.9c-0.8,0.8-0.8,2.1,0,2.9c0.4,0.4,0.9,0.6,1.5,0.6c0.5,0,1.1-0.2,1.5-0.6l128.4-128.4
	c0.8-0.8,0.8-2.1,0-2.9C377.4,615.6,376.1,615.6,375.3,616.4z"/>
</svg>
